<?xml version="1.0" encoding="utf-8"?>
<!-- Generator: Adobe Illustrator 16.0.0, SVG Export Plug-In . SVG Version: 6.00 Build 0)  -->
<!DOCTYPE svg PUBLIC "-//W3C//DTD SVG 1.0//EN" "http://www.w3.org/TR/2001/REC-SVG-20010904/DTD/svg10.dtd">
<svg version="1.0" id="Layer_1" xmlns="http://www.w3.org/2000/svg" xmlns:xlink="http://www.w3.org/1999/xlink" x="0px" y="0px"
	 width="160px" height="600px" viewBox="0 0 160 600" enable-background="new 0 0 160 600" xml:space="preserve">
<g>
	<path fill="#FFFFFF" d="M33.212,89.494c-1.971,0.452-2.546,0.083-3.039-1.149c-0.78-1.971-2.135-2.916-4.64-2.916
		c-3.449,0-5.214,2.505-5.214,6.406v7.966c0,3.901,1.848,6.282,5.256,6.282c2.628,0,3.942-1.314,4.64-3.162
		c0.493-1.314,1.561-1.437,3.408-0.698c1.56,0.657,2.217,1.396,1.56,3.121c-1.067,2.792-4.27,5.954-9.649,5.954
		c-7.473,0-11.127-3.86-11.127-10.717V91.26c0-6.364,3.572-11.004,11.21-11.004c5.913,0,8.828,2.998,9.937,6.529
		C36.045,88.427,35.101,89.083,33.212,89.494z"/>
	<path fill="#FFFFFF" d="M58.427,102.511c0,5.625-3.654,8.787-9.978,8.787c-6.364,0-9.937-3.203-9.937-8.623V96.68
		c0-5.667,3.572-8.787,9.978-8.787c6.283,0,9.937,3.121,9.937,8.787V102.511z M52.679,96.967c0-3.244-1.889-4.394-4.229-4.394
		c-2.34,0-4.188,1.15-4.188,4.435v5.173c0,3.285,1.848,4.435,4.188,4.435c2.341,0,4.229-1.149,4.229-4.394V96.967z"/>
	<path fill="#FFFFFF" d="M62.661,90.233c0-1.643,0.821-2.135,2.792-2.135c1.971,0,2.792,0.493,2.792,2.135v1.273
		c1.396-1.602,3.859-3.613,7.35-3.613c4.312,0,6.488,3.121,6.488,6.816v14.125c0,1.725-0.862,2.218-2.875,2.218
		s-2.875-0.493-2.875-2.218V96.27c0-1.643-0.329-3.696-3.121-3.696c-2.587,0-4.024,1.848-4.804,3.49v12.77
		c0,1.725-0.862,2.218-2.875,2.218c-2.012,0-2.874-0.493-2.874-2.218V90.233z"/>
	<path fill="#FFFFFF" d="M95.472,110.805c-4.024,0-7.556-1.602-7.556-6.693V93.765h-1.478c-1.396,0-1.766-0.657-1.766-2.299
		s0.369-2.299,1.766-2.299h1.478v-3.573c0-1.683,0.821-2.135,2.792-2.135c1.972,0,2.793,0.452,2.793,2.135v3.573h2.956
		c1.396,0,1.766,0.657,1.766,2.299s-0.369,2.299-1.766,2.299h-2.792v9.28c0,2.382,0.533,3.08,3.079,3.08h0.123
		c1.438,0,1.808,0.657,1.808,2.341s-0.37,2.34-1.808,2.34H95.472z"/>
	<path fill="#FFFFFF" d="M113.008,93.231c-2.669,0-4.229,2.135-4.764,3.942v11.661c0,1.725-0.862,2.218-2.874,2.218
		s-2.874-0.493-2.874-2.218V90.315c0-1.643,0.821-2.135,2.792-2.135s2.792,0.493,2.792,2.135v1.889
		c1.232-2.218,3.285-4.271,5.872-4.271c1.725,0,1.971,1.067,1.725,2.669c-0.369,2.094-1.026,2.751-1.93,2.669
		C113.583,93.272,113.213,93.231,113.008,93.231z"/>
	<path fill="#FFFFFF" d="M136.825,102.511c0,5.625-3.654,8.787-9.978,8.787c-6.365,0-9.938-3.203-9.938-8.623V96.68
		c0-5.667,3.572-8.787,9.979-8.787c6.282,0,9.937,3.121,9.937,8.787V102.511z M131.077,96.967c0-3.244-1.89-4.394-4.229-4.394
		c-2.341,0-4.188,1.15-4.188,4.435v5.173c0,3.285,1.848,4.435,4.188,4.435c2.34,0,4.229-1.149,4.229-4.394V96.967z"/>
	<path fill="#FFFFFF" d="M146.89,108.711c0,1.725-0.862,2.217-2.875,2.217c-2.012,0-2.874-0.493-2.874-2.217V82.103
		c0-1.724,0.862-2.217,2.874-2.217c2.013,0,2.875,0.493,2.875,2.217V108.711z"/>
</g>
</svg>
