<?xml version="1.0" encoding="utf-8"?>
<!-- Generator: Adobe Illustrator 16.0.0, SVG Export Plug-In . SVG Version: 6.00 Build 0)  -->
<!DOCTYPE svg PUBLIC "-//W3C//DTD SVG 1.0//EN" "http://www.w3.org/TR/2001/REC-SVG-20010904/DTD/svg10.dtd">
<svg version="1.0" id="Layer_1" xmlns="http://www.w3.org/2000/svg" xmlns:xlink="http://www.w3.org/1999/xlink" x="0px" y="0px"
	 width="160px" height="600px" viewBox="0 0 160 600" enable-background="new 0 0 160 600" xml:space="preserve">
<path fill="#FFFFFF" d="M102.793,223.354c0-5.748,4.124-13.058,7.654-18.057c0.375-0.531,0.5-0.843,0.5-1.78
	c0-0.875-0.312-1.5-1.031-1.5H96.92c-1.188,0-1.53,0.625-1.53,1.968c0,1.375,0.343,2,1.53,2h8.435
	c-2.999,4.623-7.06,11.34-7.06,17.369c0,1.375,0.687,1.749,2.249,1.749C102.105,225.104,102.793,224.729,102.793,223.354
	 M92.766,203.267c0.468-1.281,0.249-1.531-1.375-1.531c-1.718,0-2.093,0.031-2.718,1.624l-7.779,20.369
	c-0.405,1.062,0.313,1.374,1.625,1.374c1.718,0,1.938-0.093,2.468-1.468L92.766,203.267z M72.804,223.354
	c0,1.375,0.687,1.749,2.249,1.749s2.25-0.374,2.25-1.749v-3.28h1.093c1.187,0,1.531-0.594,1.531-1.937
	c0-1.375-0.344-1.999-1.531-1.999h-1.093v-2.187c0-1.375-0.688-1.75-2.25-1.75s-2.249,0.375-2.249,1.75v2.187h-4.217l8.06-11.247
	c0.718-0.999,0.468-1.624-0.625-2.499c-1.156-0.875-1.906-1.031-2.655,0l-10.028,13.871c-0.594,0.843-0.563,1.374-0.313,2.249
	c0.375,1.093,0.844,1.562,1.843,1.562h7.935V223.354z M46.188,222.698c0,1.749,0.875,2.187,2.843,2.187h11.715
	c1.187,0,1.531-0.625,1.531-1.968c0-1.375-0.344-2-1.531-2h-0.031h-9.841v-0.25c0-1.78,0.125-2.655,4.686-4.592
	c4.592-1.937,6.81-3.999,6.81-7.529c0-3.967-2.124-6.904-7.716-6.904c-3.405,0-6.342,1.781-7.716,4.749
	c-0.5,1.093,0.031,1.749,1.343,2.249c1.343,0.594,1.906,0.375,2.374-0.562c0.781-1.531,1.562-2.5,3.999-2.5
	c2.562,0,3.155,1.469,3.155,2.968c0,1.625-1.187,2.781-4.467,4.124C47.313,215.138,46.188,218.043,46.188,222.698"/>
</svg>
