<?xml version="1.0" encoding="utf-8"?>
<!-- Generator: Adobe Illustrator 16.0.0, SVG Export Plug-In . SVG Version: 6.00 Build 0)  -->
<!DOCTYPE svg PUBLIC "-//W3C//DTD SVG 1.0//EN" "http://www.w3.org/TR/2001/REC-SVG-20010904/DTD/svg10.dtd">
<svg version="1.0" id="Layer_1" xmlns="http://www.w3.org/2000/svg" xmlns:xlink="http://www.w3.org/1999/xlink" x="0px" y="0px"
	 width="160px" height="600px" viewBox="0 0 160 600" enable-background="new 0 0 160 600" xml:space="preserve">
<g>
	<path fill="#FFFFFF" d="M63.538,134.095l-4.308-12.294c-0.169-0.532,0.049-0.895,0.654-0.895c0.484,0,0.726,0.193,0.871,0.629
		l3.606,10.721l3.46-10.6c0.169-0.557,0.46-0.75,0.919-0.75c0.581,0,0.823,0.339,0.629,0.871l-4.598,13.117
		c-0.75,2.129-2.009,3.485-3.146,4.283c-0.412,0.291-0.702,0.242-1.017-0.145c-0.29-0.339-0.242-0.799,0.121-1.017
		C62.014,137.266,62.885,136.031,63.538,134.095z"/>
	<path fill="#FFFFFF" d="M80.817,129.449c0,3.049-1.888,4.985-5.155,4.985c-3.243,0-5.131-1.839-5.131-4.889v-3.775
		c0-3.098,1.96-4.985,5.131-4.985c3.339,0,5.155,1.888,5.155,4.985V129.449z M79.317,125.964c0-2.638-1.331-3.872-3.654-3.872
		c-2.178,0-3.606,1.21-3.606,3.872v3.364c0,2.662,1.355,3.8,3.606,3.8c2.25,0,3.654-1.21,3.654-3.896V125.964z"/>
	<path fill="#FFFFFF" d="M91.658,132.159c-0.944,1.089-2.541,2.202-4.574,2.202c-2.153,0-3.509-1.379-3.509-3.872v-8.881
		c0-0.508,0.267-0.702,0.75-0.702c0.46,0,0.75,0.193,0.75,0.702v8.761c0,1.718,0.92,2.686,2.323,2.686
		c1.525,0,3.05-0.799,4.211-2.25v-9.196c0-0.508,0.267-0.702,0.75-0.702c0.46,0,0.751,0.193,0.751,0.702v12.028
		c0,0.484-0.291,0.677-0.727,0.677c-0.46,0-0.726-0.193-0.726-0.677V132.159z"/>
	<path fill="#FFFFFF" d="M98.12,125.407v8.204c0,0.508-0.267,0.702-0.751,0.702c-0.459,0-0.75-0.193-0.75-0.702v-12.003
		c0-0.484,0.291-0.678,0.727-0.678c0.459,0,0.726,0.194,0.726,0.678v2.227c0.726-1.573,2.493-3.025,4.018-3.025
		c0.436,0,0.532,0.315,0.532,0.557c0,0.847-0.339,1.017-0.702,1.017C100.008,122.382,98.459,124.101,98.12,125.407z"/>
</g>
</svg>
