<?xml version="1.0" encoding="utf-8"?>
<!-- Generator: Adobe Illustrator 16.0.0, SVG Export Plug-In . SVG Version: 6.00 Build 0)  -->
<!DOCTYPE svg PUBLIC "-//W3C//DTD SVG 1.0//EN" "http://www.w3.org/TR/2001/REC-SVG-20010904/DTD/svg10.dtd">
<svg version="1.0" id="Layer_1" xmlns="http://www.w3.org/2000/svg" xmlns:xlink="http://www.w3.org/1999/xlink" x="0px" y="0px"
	 width="160px" height="600px" viewBox="0 0 160 600" enable-background="new 0 0 160 600" xml:space="preserve">
<g>
	<path fill="#FFFFFF" d="M46.914,172.64c0,1.058-0.554,1.461-1.562,1.461c-0.958,0-1.562-0.403-1.562-1.461v-17.836
		c0-3.98-1.512-6.046-4.686-6.046c-2.922,0-5.492,2.116-7.003,5.392v18.491c0,1.058-0.555,1.461-1.562,1.461
		c-0.958,0-1.562-0.403-1.562-1.461v-18.038c0-3.779-1.411-5.845-4.686-5.845c-3.326,0-5.895,2.52-7.104,5.392v18.491
		c0,1.058-0.554,1.461-1.562,1.461c-0.957,0-1.562-0.403-1.562-1.461v-25.041c0-1.008,0.605-1.411,1.512-1.411
		c0.958,0,1.512,0.403,1.512,1.411v3.174c1.411-2.469,4.283-4.837,7.708-4.837c3.98,0,6.147,2.469,6.853,4.938
		c1.915-3.174,5.039-4.938,8.062-4.938c4.434,0,7.205,3.073,7.205,7.81V172.64z"/>
	<path fill="#FFFFFF" d="M74.125,163.974c0,6.349-3.93,10.379-10.732,10.379c-6.751,0-10.682-3.83-10.682-10.178v-7.86
		c0-6.449,4.081-10.379,10.682-10.379c6.953,0,10.732,3.93,10.732,10.379V163.974z M71.001,156.719c0-5.492-2.771-8.062-7.608-8.062
		c-4.535,0-7.507,2.519-7.507,8.062v7.003c0,5.542,2.821,7.911,7.507,7.911c4.686,0,7.608-2.52,7.608-8.112V156.719z"/>
	<path fill="#FFFFFF" d="M80.273,147.599c0-1.008,0.604-1.411,1.512-1.411c0.957,0,1.512,0.403,1.512,1.411v3.225
		c2.065-2.821,5.139-4.887,8.969-4.887c5.34,0,7.759,3.577,7.759,8.868v17.836c0,1.058-0.555,1.461-1.562,1.461
		c-0.958,0-1.562-0.403-1.562-1.461v-16.778c0-4.132-1.058-7.155-5.492-7.155c-3.325,0-6.499,2.57-8.011,5.593v18.34
		c0,1.058-0.554,1.461-1.562,1.461c-0.958,0-1.562-0.403-1.562-1.461V147.599z"/>
	<path fill="#FFFFFF" d="M116.251,174.354c-6.752,0-10.48-4.132-10.48-10.43v-7.81c0-6.248,4.384-10.178,10.229-10.178
		c6.247,0,10.328,3.678,10.328,10.782v2.57c0,1.411-0.806,2.065-2.267,2.065h-15.116v2.418c0,4.686,2.318,7.86,7.307,7.86
		c3.678,0,5.643-1.31,6.701-3.477c0.453-0.907,1.058-1.108,1.914-0.756c0.807,0.302,1.311,0.907,0.907,1.864
		C124.362,172.489,121.188,174.354,116.251,174.354z M123.203,156.567c0-5.088-2.619-7.91-7.255-7.91
		c-3.93,0-7.004,2.57-7.004,7.558v2.57h14.259V156.567z"/>
	<path fill="#FFFFFF" d="M137.111,173.648l-8.968-25.595c-0.354-1.108,0.101-1.864,1.36-1.864c1.007,0,1.511,0.403,1.813,1.31
		l7.507,22.32l7.205-22.068c0.354-1.159,0.958-1.562,1.915-1.562c1.209,0,1.713,0.705,1.31,1.814l-9.572,27.308
		c-1.562,4.434-4.183,7.255-6.551,8.918c-0.856,0.605-1.461,0.504-2.116-0.302c-0.604-0.705-0.504-1.663,0.252-2.116
		C133.938,180.249,135.751,177.679,137.111,173.648z"/>
</g>
</svg>
