<?xml version="1.0" encoding="utf-8"?>
<!-- Generator: Adobe Illustrator 16.0.0, SVG Export Plug-In . SVG Version: 6.00 Build 0)  -->
<!DOCTYPE svg PUBLIC "-//W3C//DTD SVG 1.0//EN" "http://www.w3.org/TR/2001/REC-SVG-20010904/DTD/svg10.dtd">
<svg version="1.0" id="Layer_1" xmlns="http://www.w3.org/2000/svg" xmlns:xlink="http://www.w3.org/1999/xlink" x="0px" y="0px"
	 width="160px" height="600px" viewBox="0 0 160 600" enable-background="new 0 0 160 600" xml:space="preserve">
<g>
	<path fill="#FFFFFF" d="M22.159,87.512c0,2.842-1.869,5.223-6.12,5.223c-4.276,0-6.042-2.381-6.042-5.223V74.479
		c0-0.589,0.333-0.793,0.845-0.793c0.538,0,0.845,0.205,0.845,0.793v13.059c0,2.355,1.459,3.712,4.353,3.712
		c2.894,0,4.481-1.357,4.481-3.712V74.479c0-0.589,0.307-0.793,0.819-0.793c0.538,0,0.819,0.205,0.819,0.793V87.512z"/>
</g>
<g>
	<path fill="#FFFFFF" d="M29.768,91.353c1.792,0,2.97-0.999,2.97-2.407c0-3.815-7.246-2.202-7.246-7.016
		c0-2.151,1.767-3.662,4.353-3.662c2.253,0,3.636,1.101,4.225,2.765c0.179,0.487-0.077,0.743-0.486,0.871
		c-0.538,0.154-0.819,0-0.947-0.384c-0.41-1.204-1.229-1.869-2.868-1.869c-1.665,0-2.74,0.819-2.74,2.253
		c0,3.431,7.246,1.895,7.246,7.016c0,2.1-1.741,3.79-4.506,3.79c-2.176,0-3.866-1.024-4.532-2.893
		c-0.179-0.487,0.051-0.769,0.461-0.922c0.436-0.179,0.794-0.051,0.973,0.384C27.13,90.379,27.975,91.353,29.768,91.353z"/>
	<path fill="#FFFFFF" d="M41.907,92.709c-3.431,0-5.326-2.1-5.326-5.3v-3.968c0-3.175,2.228-5.172,5.197-5.172
		c3.175,0,5.249,1.869,5.249,5.479v1.306c0,0.717-0.41,1.05-1.152,1.05h-7.681v1.229c0,2.381,1.178,3.994,3.713,3.994
		c1.869,0,2.868-0.666,3.405-1.767c0.23-0.461,0.538-0.563,0.973-0.384c0.41,0.153,0.666,0.46,0.461,0.947
		C46.029,91.762,44.416,92.709,41.907,92.709z M45.44,83.671c0-2.586-1.332-4.02-3.687-4.02c-1.997,0-3.559,1.306-3.559,3.84v1.306
		h7.246V83.671z"/>
	<path fill="#FFFFFF" d="M65.774,87.435c0,3.226-1.998,5.274-5.454,5.274c-3.431,0-5.428-1.946-5.428-5.172v-3.995
		c0-3.277,2.074-5.274,5.428-5.274c3.534,0,5.454,1.997,5.454,5.274V87.435z M64.186,83.748c0-2.791-1.408-4.097-3.866-4.097
		c-2.304,0-3.815,1.28-3.815,4.097v3.559c0,2.816,1.434,4.02,3.815,4.02c2.381,0,3.866-1.28,3.866-4.122V83.748z"/>
	<path fill="#FFFFFF" d="M77.478,90.303c-0.999,1.152-2.688,2.33-4.839,2.33c-2.279,0-3.713-1.459-3.713-4.097v-9.397
		c0-0.538,0.282-0.743,0.794-0.743c0.486,0,0.793,0.205,0.793,0.743v9.269c0,1.818,0.973,2.842,2.458,2.842
		c1.613,0,3.226-0.845,4.455-2.381v-9.729c0-0.538,0.282-0.743,0.794-0.743c0.486,0,0.794,0.205,0.794,0.743v12.725
		c0,0.512-0.308,0.717-0.769,0.717c-0.486,0-0.768-0.205-0.768-0.717V90.303z"/>
	<path fill="#FFFFFF" d="M84.548,83.159v8.68c0,0.538-0.281,0.743-0.793,0.743c-0.487,0-0.794-0.205-0.794-0.743v-12.7
		c0-0.512,0.307-0.717,0.768-0.717c0.487,0,0.769,0.205,0.769,0.717v2.355c0.769-1.664,2.638-3.2,4.25-3.2
		c0.461,0,0.563,0.333,0.563,0.589c0,0.896-0.358,1.075-0.742,1.075C86.545,79.958,84.906,81.776,84.548,83.159z"/>
</g>
</svg>
