<?xml version="1.0" encoding="utf-8"?>
<!-- Generator: Adobe Illustrator 16.0.0, SVG Export Plug-In . SVG Version: 6.00 Build 0)  -->
<!DOCTYPE svg PUBLIC "-//W3C//DTD SVG 1.0//EN" "http://www.w3.org/TR/2001/REC-SVG-20010904/DTD/svg10.dtd">
<svg version="1.0" id="Layer_1" xmlns="http://www.w3.org/2000/svg" xmlns:xlink="http://www.w3.org/1999/xlink" x="0px" y="0px"
	 width="160px" height="600px" viewBox="0 0 160 600" enable-background="new 0 0 160 600" xml:space="preserve">
<g>
	<path fill="#FFFFFF" d="M16.68,102.088c3.636,0,5.633,1.869,5.633,4.634v0.41c0,1.895-1.024,3.354-2.663,3.943
		c1.92,0.358,3.226,1.972,3.226,4.25v0.333c0,3.021-2.253,5.172-6.222,5.172h-4.686c-1.613,0-2.33-0.384-2.33-1.818v-15.106
		c0-1.434,0.717-1.818,2.33-1.818H16.68z M18.703,107.336c0-1.664-1.152-2.125-3.175-2.125h-2.202v4.532h2.433
		c2.125,0,2.944-0.871,2.944-2.125V107.336z M15.732,117.578c2.355,0,3.457-0.563,3.457-2.458c-0.025-1.818-1.152-2.432-2.97-2.432
		h-2.893v4.89H15.732z"/>
	<path fill="#FFFFFF" d="M32.789,119.089c-0.87,1.127-1.997,1.997-3.943,1.997c-2.637,0-4.199-1.843-4.199-3.994v-0.179
		c0-2.74,1.869-4.813,8.04-4.276v-1.05c0-1.332-0.615-2.125-2.356-2.125c-1.203,0-1.715,0.461-2.125,1.101
		c-0.486,0.768-0.871,0.845-1.818,0.333c-0.947-0.461-1.408-0.973-0.871-1.895c0.947-1.639,2.458-2.458,5.326-2.458
		c2.97,0,5.352,1.818,5.352,5.249v7.912c0,1.05-0.512,1.332-1.716,1.332c-1.178,0-1.69-0.282-1.69-1.332V119.089z M32.687,114.813
		c-3.738-0.179-4.481,0.589-4.481,1.844v0.051c0,0.845,0.563,1.51,1.613,1.51c1.126,0,2.15-0.435,2.868-1.434V114.813z"/>
	<path fill="#FFFFFF" d="M39.398,108.002c0-1.024,0.512-1.332,1.741-1.332s1.741,0.307,1.741,1.332v0.793
		c0.871-0.999,2.407-2.253,4.583-2.253c2.688,0,4.045,1.946,4.045,4.25v8.808c0,1.075-0.538,1.383-1.792,1.383
		c-1.254,0-1.792-0.308-1.792-1.383v-7.835c0-1.024-0.205-2.304-1.946-2.304c-1.613,0-2.509,1.152-2.996,2.176v7.963
		c0,1.075-0.538,1.383-1.792,1.383c-1.255,0-1.792-0.308-1.792-1.383V108.002z"/>
	<path fill="#FFFFFF" d="M66.567,119.217c0.282,0.487,0.41,0.769,0.41,0.999c0,0.538-0.435,0.793-1.741,0.793
		c-1.332,0-1.664-0.051-2.202-1.024l-3.021-5.377l-1.741,1.767v3.251c0,1.076-0.538,1.383-1.792,1.383
		c-1.255,0-1.792-0.307-1.792-1.383v-16.694c0-1.075,0.538-1.382,1.792-1.382c1.254,0,1.792,0.307,1.792,1.382v9.397l3.969-4.583
		c0.768-0.87,1.101-1.075,2.688-1.075c1.204,0,1.613,0.307,1.613,0.717c0,0.256-0.128,0.538-0.538,0.947l-3.533,3.841
		L66.567,119.217z"/>
	<path fill="#FFFFFF" d="M72.639,103.931c0,0.947-0.691,1.204-1.792,1.204s-1.792-0.256-1.792-1.204v-1.203
		c0-0.948,0.691-1.204,1.792-1.204s1.792,0.256,1.792,1.204V103.931z M72.639,108.054c0-1.076-0.538-1.383-1.792-1.383
		c-1.255,0-1.792,0.307-1.792,1.383v11.573c0,1.076,0.538,1.383,1.792,1.383c1.254,0,1.792-0.307,1.792-1.383V108.054z"/>
	<path fill="#FFFFFF" d="M75.841,108.002c0-1.024,0.512-1.332,1.741-1.332s1.741,0.307,1.741,1.332v0.793
		c0.871-0.999,2.407-2.253,4.583-2.253c2.688,0,4.046,1.946,4.046,4.25v8.808c0,1.075-0.538,1.383-1.792,1.383
		c-1.255,0-1.793-0.308-1.793-1.383v-7.835c0-1.024-0.204-2.304-1.945-2.304c-1.613,0-2.51,1.152-2.996,2.176v7.963
		c0,1.075-0.538,1.383-1.792,1.383c-1.255,0-1.792-0.308-1.792-1.383V108.002z"/>
	<path fill="#FFFFFF" d="M101.143,108.565c0.384,0.615,0.64,1.332,0.64,2.202v0.691c0,2.381-2.125,4.097-5.786,4.097
		c-0.538,0-1.076-0.051-1.562-0.128c-0.179,0.179-0.307,0.358-0.307,0.64c0,0.41,0.358,0.614,0.845,0.691l3.738,0.487
		c3.149,0.41,4.045,2.048,4.045,4.48c0,2.484-2.022,4.686-6.503,4.686c-4.071,0-6.273-1.485-6.273-4.148
		c0-1.459,0.999-2.535,2.33-3.124c-0.768-0.435-1.203-1.101-1.203-2.022c0-0.999,0.614-1.869,1.484-2.381
		c-1.382-0.794-1.997-1.972-1.997-3.533v-0.23c0-2.791,2.177-4.43,5.607-4.43c1.178,0,2.305,0.23,3.277,0.691
		c1.075-0.691,2.382-1.127,3.227-1.127c0.742,0,0.947,0.359,0.947,1.229c0,0.871-0.205,1.229-0.947,1.229
		C102.09,108.565,101.757,108.565,101.143,108.565z M95.739,119.908l-0.896-0.128c-0.922,0.384-1.46,1.075-1.46,1.997
		c0,1.229,0.974,1.895,2.868,1.895c2.483,0,3.072-0.896,3.072-1.869c0-0.948-0.384-1.485-1.869-1.69L95.739,119.908z M96.2,109.078
		c-1.587,0-2.304,0.819-2.304,2.048c0,1.28,0.845,1.895,2.304,1.895c1.435,0,2.279-0.615,2.279-1.895
		C98.479,109.897,97.788,109.078,96.2,109.078z"/>
	<path fill="#FFFFFF" d="M122.295,119.499c0.333,1.05-0.333,1.485-1.562,1.485c-1.279,0-1.792-0.205-2.022-1.05l-1.101-3.866h-5.915
		l-1.203,3.917c-0.256,0.793-0.717,0.999-1.869,0.999c-1.331,0-1.741-0.436-1.434-1.408l5.3-16.541
		c0.281-0.922,1.024-1.152,2.535-1.152c1.101,0,1.895,0.256,2.176,1.152L122.295,119.499z M114.767,105.903l-2.15,7.144h4.148
		L114.767,105.903z"/>
	<path fill="#FFFFFF" d="M127.777,108.771c0.845-1.101,2.33-2.228,4.302-2.228c2.97,0,4.916,2.074,4.916,5.607v3.457
		c0,3.738-2.663,5.53-5.454,5.53c-2.048,0-3.149-1.024-3.661-1.895v5.633c0,1.076-0.538,1.383-1.792,1.383
		c-1.255,0-1.793-0.307-1.793-1.383v-16.822c0-1.024,0.513-1.332,1.741-1.332c1.229,0,1.741,0.307,1.741,1.332V108.771z
		 M133.385,112.765c0-2.228-0.922-3.303-2.611-3.303c-1.408,0-2.894,1.05-2.894,2.996v2.663c0,1.741,0.999,3.098,2.867,3.098
		c1.357,0,2.638-0.589,2.638-2.97V112.765z"/>
	<path fill="#FFFFFF" d="M143.298,108.771c0.845-1.101,2.33-2.228,4.302-2.228c2.97,0,4.916,2.074,4.916,5.607v3.457
		c0,3.738-2.663,5.53-5.454,5.53c-2.048,0-3.149-1.024-3.661-1.895v5.633c0,1.076-0.538,1.383-1.792,1.383
		c-1.255,0-1.793-0.307-1.793-1.383v-16.822c0-1.024,0.513-1.332,1.741-1.332c1.229,0,1.741,0.307,1.741,1.332V108.771z
		 M148.905,112.765c0-2.228-0.922-3.303-2.611-3.303c-1.408,0-2.894,1.05-2.894,2.996v2.663c0,1.741,0.998,3.098,2.867,3.098
		c1.357,0,2.638-0.589,2.638-2.97V112.765z"/>
</g>
</svg>
