<?xml version="1.0" encoding="utf-8"?>
<!-- Generator: Adobe Illustrator 16.0.0, SVG Export Plug-In . SVG Version: 6.00 Build 0)  -->
<!DOCTYPE svg PUBLIC "-//W3C//DTD SVG 1.0//EN" "http://www.w3.org/TR/2001/REC-SVG-20010904/DTD/svg10.dtd">
<svg version="1.0" id="Layer_1" xmlns="http://www.w3.org/2000/svg" xmlns:xlink="http://www.w3.org/1999/xlink" x="0px" y="0px"
	 width="160px" height="600px" viewBox="0 0 160 600" enable-background="new 0 0 160 600" xml:space="preserve">
<g>
	<path fill="#FFFFFF" d="M20.265,144.137c0,3.226-1.998,5.274-5.454,5.274c-3.431,0-5.428-1.946-5.428-5.172v-3.995
		c0-3.277,2.074-5.274,5.428-5.274c3.534,0,5.454,1.997,5.454,5.274V144.137z M18.677,140.45c0-2.791-1.408-4.097-3.866-4.097
		c-2.304,0-3.815,1.28-3.815,4.097v3.559c0,2.816,1.434,4.02,3.815,4.02c2.381,0,3.866-1.28,3.866-4.122V140.45z"/>
	<path fill="#FFFFFF" d="M23.622,135.815c0-0.512,0.307-0.717,0.768-0.717c0.486,0,0.768,0.205,0.768,0.717v1.639
		c1.05-1.434,2.612-2.484,4.558-2.484c2.714,0,3.943,1.818,3.943,4.506v9.064c0,0.538-0.282,0.743-0.793,0.743
		c-0.487,0-0.794-0.205-0.794-0.743v-8.526c0-2.099-0.538-3.636-2.791-3.636c-1.689,0-3.303,1.306-4.071,2.842v9.32
		c0,0.538-0.282,0.743-0.794,0.743c-0.486,0-0.793-0.205-0.793-0.743V135.815z"/>
	<path fill="#FFFFFF" d="M47.771,147.798c0.435,0,0.614,0.256,0.614,0.691c0,0.436-0.179,0.691-0.614,0.691H47.08
		c-2.509,0-3.841-0.691-3.841-3.866v-8.654h-1.562c-0.436,0-0.615-0.256-0.615-0.691c0-0.435,0.179-0.691,0.615-0.691h1.562v-2.791
		c0-0.538,0.308-0.743,0.794-0.743c0.512,0,0.794,0.205,0.794,0.743v2.791h2.535c0.435,0,0.614,0.256,0.614,0.691
		c0,0.436-0.179,0.691-0.614,0.691h-2.535v8.833c0,1.895,0.793,2.304,2.253,2.304H47.771z"/>
	<path fill="#FFFFFF" d="M61.343,148.541c0,0.538-0.282,0.743-0.793,0.743c-0.487,0-0.794-0.205-0.794-0.743v-8.526
		c0-2.535-0.845-3.636-2.791-3.636c-1.689,0-3.277,1.306-4.071,2.842v9.32c0,0.538-0.282,0.743-0.794,0.743
		c-0.486,0-0.793-0.205-0.793-0.743v-17.974c0-0.538,0.307-0.743,0.793-0.743c0.512,0,0.794,0.205,0.794,0.743v6.888
		c1.024-1.459,2.535-2.484,4.48-2.484c2.714,0,3.969,1.792,3.969,4.532V148.541z"/>
	<path fill="#FFFFFF" d="M69.822,149.411c-3.431,0-5.326-2.1-5.326-5.3v-3.968c0-3.175,2.228-5.172,5.197-5.172
		c3.175,0,5.249,1.869,5.249,5.479v1.306c0,0.717-0.41,1.05-1.152,1.05h-7.681v1.229c0,2.381,1.178,3.994,3.713,3.994
		c1.869,0,2.868-0.666,3.405-1.767c0.23-0.461,0.538-0.563,0.973-0.384c0.41,0.153,0.666,0.46,0.461,0.947
		C73.944,148.464,72.331,149.411,69.822,149.411z M73.355,140.373c0-2.586-1.332-4.02-3.687-4.02c-1.997,0-3.559,1.306-3.559,3.84
		v1.306h7.246V140.373z"/>
	<path fill="#FFFFFF" d="M94.253,135.636c0,0.435-0.18,0.691-0.615,0.691c-0.691,0-1.306,0.026-1.92,0.077
		c0.666,0.717,1.05,1.664,1.05,2.842v0.308c0,2.637-1.972,4.173-4.993,4.173c-0.691,0-1.306-0.077-1.869-0.256
		c-0.486,0.205-0.896,0.563-0.896,1.05c0,0.691,0.742,0.922,1.767,1.101l2.893,0.461c3.047,0.512,4.174,1.587,4.174,4.225
		c0,2.381-1.869,4.353-5.812,4.353c-3.789,0-5.761-1.537-5.761-4.123c0-1.92,0.947-3.303,2.638-3.943
		c-0.769-0.358-1.28-0.896-1.28-1.716c0-0.896,0.614-1.485,1.28-1.792c-1.306-0.691-2.1-1.92-2.1-3.559v-0.103
		c0-2.919,2.048-4.455,4.967-4.455c1.306,0,2.433,0.282,3.277,0.845c0.743-0.487,1.536-0.896,2.586-0.896
		C94.073,134.919,94.253,135.201,94.253,135.636z M86.622,147.03l-0.435-0.077c-1.639,0.538-2.407,1.818-2.407,3.329
		c0,1.946,1.383,3.072,4.276,3.072c2.867,0,4.25-1.101,4.25-3.047c0-1.587-0.461-2.432-2.996-2.842L86.622,147.03z M87.774,136.25
		c-2.1,0-3.481,1.024-3.481,3.175c0,2.125,1.382,3.021,3.481,3.021c2.151,0,3.482-0.871,3.482-3.021
		C91.257,137.275,89.899,136.25,87.774,136.25z"/>
	<path fill="#FFFFFF" d="M106.622,144.137c0,3.226-1.997,5.274-5.454,5.274c-3.431,0-5.428-1.946-5.428-5.172v-3.995
		c0-3.277,2.074-5.274,5.428-5.274c3.533,0,5.454,1.997,5.454,5.274V144.137z M105.034,140.45c0-2.791-1.408-4.097-3.866-4.097
		c-2.305,0-3.814,1.28-3.814,4.097v3.559c0,2.816,1.434,4.02,3.814,4.02c2.382,0,3.866-1.28,3.866-4.122V140.45z"/>
	<path fill="#FFFFFF" d="M110.261,148.541c0,0.538-0.282,0.743-0.794,0.743c-0.486,0-0.794-0.205-0.794-0.743v-2.023
		c0-0.538,0.308-0.742,0.794-0.742c0.512,0,0.794,0.205,0.794,0.742V148.541z"/>
</g>
</svg>
