<?xml version="1.0" encoding="utf-8"?>
<!-- Generator: Adobe Illustrator 16.0.0, SVG Export Plug-In . SVG Version: 6.00 Build 0)  -->
<!DOCTYPE svg PUBLIC "-//W3C//DTD SVG 1.0//EN" "http://www.w3.org/TR/2001/REC-SVG-20010904/DTD/svg10.dtd">
<svg version="1.0" id="Layer_1" xmlns="http://www.w3.org/2000/svg" xmlns:xlink="http://www.w3.org/1999/xlink" x="0px" y="0px"
	 width="160px" height="600px" viewBox="0 0 160 600" enable-background="new 0 0 160 600" xml:space="preserve">
<g>
	<path fill="#FFFFFF" d="M24.425,94.185c-1.251,0.287-1.616,0.052-1.929-0.729c-0.495-1.251-1.355-1.851-2.945-1.851
		c-2.189,0-3.31,1.59-3.31,4.066v5.056c0,2.476,1.173,3.987,3.336,3.987c1.668,0,2.502-0.834,2.945-2.007
		c0.312-0.834,0.99-0.912,2.163-0.443c0.99,0.417,1.407,0.886,0.99,1.98c-0.678,1.772-2.71,3.779-6.125,3.779
		c-4.743,0-7.063-2.45-7.063-6.802v-5.916c0-4.04,2.268-6.985,7.115-6.985c3.753,0,5.603,1.902,6.307,4.144
		C26.223,93.507,25.624,93.924,24.425,94.185z"/>
	<path fill="#FFFFFF" d="M40.423,102.446c0,3.571-2.32,5.577-6.333,5.577c-4.04,0-6.307-2.033-6.307-5.473v-3.805
		c0-3.597,2.267-5.577,6.333-5.577c3.987,0,6.307,1.98,6.307,5.577V102.446z M36.774,98.928c0-2.059-1.199-2.789-2.684-2.789
		c-1.486,0-2.659,0.729-2.659,2.814v3.284c0,2.085,1.173,2.815,2.659,2.815c1.485,0,2.684-0.73,2.684-2.789V98.928z"/>
	<path fill="#FFFFFF" d="M43.103,94.654c0-1.042,0.521-1.355,1.772-1.355s1.772,0.312,1.772,1.355v0.808
		c0.886-1.017,2.45-2.293,4.665-2.293c2.737,0,4.118,1.98,4.118,4.326v8.965c0,1.095-0.547,1.407-1.825,1.407
		c-1.277,0-1.824-0.312-1.824-1.407v-7.975c0-1.042-0.208-2.345-1.98-2.345c-1.642,0-2.554,1.172-3.049,2.215v8.105
		c0,1.095-0.547,1.407-1.824,1.407c-1.277,0-1.825-0.312-1.825-1.407V94.654z"/>
	<path fill="#FFFFFF" d="M63.922,107.711c-2.554,0-4.795-1.017-4.795-4.248v-6.568h-0.938c-0.886,0-1.121-0.417-1.121-1.459
		s0.235-1.459,1.121-1.459h0.938v-2.267c0-1.069,0.521-1.355,1.772-1.355s1.772,0.287,1.772,1.355v2.267h1.876
		c0.886,0,1.121,0.417,1.121,1.459s-0.234,1.459-1.121,1.459h-1.772v5.89c0,1.512,0.339,1.955,1.955,1.955h0.078
		c0.912,0,1.146,0.417,1.146,1.486c0,1.068-0.234,1.485-1.146,1.485H63.922z"/>
	<path fill="#FFFFFF" d="M75.048,96.557c-1.694,0-2.684,1.355-3.023,2.502v7.401c0,1.095-0.547,1.407-1.825,1.407
		c-1.277,0-1.824-0.312-1.824-1.407V94.706c0-1.042,0.521-1.355,1.772-1.355s1.772,0.313,1.772,1.355v1.199
		c0.782-1.407,2.085-2.71,3.727-2.71c1.095,0,1.251,0.678,1.095,1.694c-0.235,1.329-0.652,1.746-1.225,1.694
		C75.413,96.583,75.178,96.557,75.048,96.557z"/>
	<path fill="#FFFFFF" d="M90.188,102.446c0,3.571-2.319,5.577-6.333,5.577c-4.04,0-6.307-2.033-6.307-5.473v-3.805
		c0-3.597,2.267-5.577,6.333-5.577c3.988,0,6.308,1.98,6.308,5.577V102.446z M86.539,98.928c0-2.059-1.199-2.789-2.685-2.789
		s-2.658,0.729-2.658,2.814v3.284c0,2.085,1.173,2.815,2.658,2.815s2.685-0.73,2.685-2.789V98.928z"/>
	<path fill="#FFFFFF" d="M96.568,106.382c0,1.095-0.547,1.407-1.824,1.407s-1.824-0.312-1.824-1.407V89.494
		c0-1.095,0.547-1.407,1.824-1.407s1.824,0.312,1.824,1.407V106.382z"/>
</g>
<g>
	<path fill="#FFFFFF" d="M106.236,107.581l-4.64-13.239c-0.183-0.574,0.052-0.964,0.704-0.964c0.521,0,0.781,0.208,0.938,0.678
		l3.884,11.545l3.727-11.416c0.183-0.599,0.495-0.808,0.99-0.808c0.626,0,0.887,0.365,0.678,0.938l-4.951,14.125
		c-0.809,2.294-2.163,3.753-3.389,4.613c-0.442,0.312-0.756,0.261-1.095-0.156c-0.312-0.365-0.261-0.86,0.131-1.095
		C104.594,110.995,105.532,109.666,106.236,107.581z"/>
	<path fill="#FFFFFF" d="M124.841,102.577c0,3.284-2.032,5.369-5.551,5.369c-3.492,0-5.525-1.98-5.525-5.264v-4.066
		c0-3.336,2.111-5.369,5.525-5.369c3.597,0,5.551,2.033,5.551,5.369V102.577z M123.226,98.824c0-2.841-1.434-4.17-3.936-4.17
		c-2.346,0-3.884,1.303-3.884,4.17v3.623c0,2.867,1.46,4.092,3.884,4.092s3.936-1.303,3.936-4.196V98.824z"/>
	<path fill="#FFFFFF" d="M136.513,105.496c-1.017,1.173-2.736,2.372-4.926,2.372c-2.319,0-3.779-1.485-3.779-4.17v-9.564
		c0-0.547,0.287-0.756,0.809-0.756c0.495,0,0.808,0.208,0.808,0.756v9.434c0,1.851,0.99,2.893,2.502,2.893
		c1.642,0,3.284-0.86,4.535-2.424v-9.903c0-0.547,0.286-0.756,0.808-0.756c0.495,0,0.808,0.208,0.808,0.756v12.953
		c0,0.521-0.312,0.73-0.781,0.73c-0.495,0-0.782-0.209-0.782-0.73V105.496z"/>
	<path fill="#FFFFFF" d="M143.468,98.225v8.835c0,0.547-0.287,0.756-0.809,0.756c-0.495,0-0.808-0.209-0.808-0.756V94.133
		c0-0.521,0.312-0.73,0.782-0.73c0.495,0,0.781,0.208,0.781,0.73v2.397c0.782-1.694,2.685-3.258,4.326-3.258
		c0.47,0,0.573,0.339,0.573,0.6c0,0.912-0.364,1.095-0.756,1.095C145.5,94.967,143.832,96.817,143.468,98.225z"/>
</g>
</svg>
