<?xml version="1.0" encoding="utf-8"?>
<!-- Generator: Adobe Illustrator 16.0.0, SVG Export Plug-In . SVG Version: 6.00 Build 0)  -->
<!DOCTYPE svg PUBLIC "-//W3C//DTD SVG 1.0//EN" "http://www.w3.org/TR/2001/REC-SVG-20010904/DTD/svg10.dtd">
<svg version="1.0" id="Layer_1" xmlns="http://www.w3.org/2000/svg" xmlns:xlink="http://www.w3.org/1999/xlink" x="0px" y="0px"
	 width="160px" height="600px" viewBox="0 0 160 600" enable-background="new 0 0 160 600" xml:space="preserve">
<g>
	<path fill="#FFFFFF" d="M30.08,133.115c0,0.547-0.287,0.755-0.808,0.755c-0.495,0-0.808-0.208-0.808-0.755v-9.226
		c0-2.059-0.782-3.127-2.424-3.127c-1.511,0-2.841,1.095-3.623,2.789v9.565c0,0.547-0.287,0.755-0.808,0.755
		c-0.496,0-0.808-0.208-0.808-0.755v-9.331c0-1.955-0.73-3.023-2.424-3.023c-1.72,0-3.049,1.303-3.675,2.789v9.565
		c0,0.547-0.287,0.755-0.808,0.755c-0.495,0-0.808-0.208-0.808-0.755v-12.953c0-0.521,0.312-0.729,0.782-0.729
		c0.495,0,0.782,0.208,0.782,0.729v1.642c0.73-1.277,2.215-2.502,3.988-2.502c2.059,0,3.179,1.277,3.544,2.554
		c0.99-1.642,2.606-2.554,4.17-2.554c2.293,0,3.727,1.59,3.727,4.04V133.115z"/>
	<path fill="#FFFFFF" d="M44.148,128.632c0,3.284-2.033,5.369-5.551,5.369c-3.493,0-5.525-1.98-5.525-5.264v-4.066
		c0-3.336,2.111-5.369,5.525-5.369c3.596,0,5.551,2.033,5.551,5.369V128.632z M42.532,124.879c0-2.841-1.433-4.17-3.935-4.17
		c-2.346,0-3.883,1.303-3.883,4.17v3.623c0,2.867,1.459,4.092,3.883,4.092s3.935-1.303,3.935-4.196V124.879z"/>
	<path fill="#FFFFFF" d="M47.324,120.162c0-0.521,0.312-0.729,0.782-0.729c0.495,0,0.782,0.208,0.782,0.729v1.668
		c1.069-1.459,2.659-2.528,4.639-2.528c2.763,0,4.014,1.851,4.014,4.587v9.226c0,0.547-0.287,0.755-0.808,0.755
		c-0.495,0-0.808-0.208-0.808-0.755v-8.679c0-2.137-0.547-3.701-2.841-3.701c-1.72,0-3.362,1.329-4.144,2.893v9.487
		c0,0.547-0.287,0.755-0.808,0.755c-0.495,0-0.808-0.208-0.808-0.755V120.162z"/>
	<path fill="#FFFFFF" d="M65.902,134c-3.492,0-5.421-2.137-5.421-5.395v-4.04c0-3.232,2.268-5.265,5.291-5.265
		c3.232,0,5.343,1.902,5.343,5.577v1.329c0,0.73-0.417,1.069-1.173,1.069h-7.818v1.251c0,2.423,1.199,4.065,3.779,4.065
		c1.903,0,2.919-0.678,3.466-1.798c0.235-0.469,0.547-0.573,0.99-0.391c0.417,0.156,0.678,0.469,0.469,0.964
		C70.099,133.036,68.457,134,65.902,134z M69.499,124.801c0-2.632-1.355-4.092-3.753-4.092c-2.033,0-3.623,1.329-3.623,3.909v1.329
		h7.375V124.801z"/>
	<path fill="#FFFFFF" d="M76.688,133.636l-4.639-13.239c-0.182-0.574,0.052-0.964,0.704-0.964c0.521,0,0.782,0.208,0.938,0.677
		l3.883,11.546l3.727-11.416c0.183-0.599,0.495-0.808,0.99-0.808c0.625,0,0.886,0.365,0.678,0.938l-4.952,14.126
		c-0.808,2.293-2.163,3.753-3.388,4.613c-0.443,0.312-0.755,0.261-1.094-0.156c-0.313-0.365-0.261-0.86,0.13-1.095
		C75.046,137.05,75.985,135.721,76.688,133.636z"/>
</g>
</svg>
