<?xml version="1.0" encoding="utf-8"?>
<!-- Generator: Adobe Illustrator 16.0.0, SVG Export Plug-In . SVG Version: 6.00 Build 0)  -->
<!DOCTYPE svg PUBLIC "-//W3C//DTD SVG 1.0//EN" "http://www.w3.org/TR/2001/REC-SVG-20010904/DTD/svg10.dtd">
<svg version="1.0" id="Layer_1" xmlns="http://www.w3.org/2000/svg" xmlns:xlink="http://www.w3.org/1999/xlink" x="0px" y="0px"
	 width="160px" height="600px" viewBox="0 0 160 600" enable-background="new 0 0 160 600" xml:space="preserve">
<path fill="#FFFFFF" d="M79.964,177.329c0-5.871,4.212-13.337,7.818-18.443c0.383-0.542,0.51-0.861,0.51-1.818
	c0-0.894-0.318-1.532-1.053-1.532H73.966c-1.213,0-1.564,0.638-1.564,2.01c0,1.404,0.351,2.042,1.564,2.042h8.615
	c-3.063,4.723-7.211,11.583-7.211,17.741c0,1.404,0.702,1.787,2.297,1.787C79.262,179.116,79.964,178.733,79.964,177.329
	 M69.722,156.812c0.479-1.308,0.255-1.563-1.404-1.563c-1.755,0-2.138,0.032-2.776,1.659l-7.945,20.804
	c-0.415,1.085,0.319,1.404,1.659,1.404c1.755,0,1.979-0.096,2.521-1.5L69.722,156.812z M49.334,177.329
	c0,1.404,0.702,1.787,2.297,1.787c1.596,0,2.298-0.383,2.298-1.787v-3.35h1.117c1.212,0,1.563-0.606,1.563-1.979
	c0-1.403-0.351-2.042-1.563-2.042h-1.117v-2.233c0-1.404-0.702-1.787-2.298-1.787c-1.595,0-2.297,0.383-2.297,1.787v2.233h-4.307
	l8.232-11.486c0.734-1.021,0.478-1.66-0.638-2.553c-1.181-0.893-1.947-1.053-2.713,0l-10.242,14.167
	c-0.606,0.862-0.574,1.404-0.319,2.297c0.383,1.117,0.862,1.596,1.883,1.596h8.104V177.329z M22.149,176.659
	c0,1.787,0.893,2.234,2.904,2.234h11.965c1.212,0,1.563-0.639,1.563-2.011c0-1.404-0.351-2.042-1.563-2.042h-0.032H26.935v-0.255
	c0-1.819,0.128-2.712,4.786-4.69c4.691-1.979,6.956-4.085,6.956-7.69c0-4.052-2.17-7.052-7.881-7.052
	c-3.478,0-6.477,1.819-7.881,4.85c-0.511,1.117,0.032,1.787,1.372,2.298c1.372,0.606,1.946,0.382,2.425-0.575
	c0.797-1.563,1.595-2.552,4.084-2.552c2.616,0,3.223,1.499,3.223,3.031c0,1.659-1.213,2.84-4.563,4.212
	C23.298,168.937,22.149,171.905,22.149,176.659"/>
</svg>
