<?xml version="1.0" encoding="utf-8"?>
<!-- Generator: Adobe Illustrator 16.0.0, SVG Export Plug-In . SVG Version: 6.00 Build 0)  -->
<!DOCTYPE svg PUBLIC "-//W3C//DTD SVG 1.0//EN" "http://www.w3.org/TR/2001/REC-SVG-20010904/DTD/svg10.dtd">
<svg version="1.0" id="Layer_1" xmlns="http://www.w3.org/2000/svg" xmlns:xlink="http://www.w3.org/1999/xlink" x="0px" y="0px"
	 width="160px" height="600px" viewBox="0 0 160 600" enable-background="new 0 0 160 600" xml:space="preserve">
<g>
	<path fill="#FFFFFF" d="M24.627,221.688c0.413-0.735,1.49-1.83,3.015-1.83c2.082,0,3.266,1.292,3.266,3.768v2.458
		c0,2.494-1.562,3.894-3.517,3.894c-1.561,0-2.458-0.79-2.782-1.436v0.879c0,0.376-0.179,0.52-0.538,0.52
		c-0.341,0-0.556-0.144-0.556-0.52v-12.651c0-0.377,0.215-0.521,0.556-0.521c0.359,0,0.556,0.144,0.556,0.521V221.688z
		 M29.795,223.769c0-1.812-0.646-2.907-2.297-2.907c-1.489,0-2.871,1.31-2.871,3.032v2.674c0,1.436,1.077,2.44,2.62,2.44
		c1.507,0,2.548-0.861,2.548-3.032V223.769z"/>
	<path fill="#FFFFFF" d="M36.431,229.978c-2.404,0-3.732-1.472-3.732-3.714v-2.782c0-2.225,1.562-3.625,3.643-3.625
		c2.225,0,3.678,1.31,3.678,3.84v0.915c0,0.503-0.287,0.736-0.807,0.736h-5.383v0.861c0,1.669,0.825,2.799,2.602,2.799
		c1.31,0,2.01-0.466,2.387-1.238c0.162-0.323,0.377-0.395,0.682-0.269c0.287,0.108,0.466,0.323,0.323,0.664
		C39.32,229.314,38.189,229.978,36.431,229.978z M38.907,223.644c0-1.812-0.933-2.817-2.584-2.817c-1.399,0-2.494,0.915-2.494,2.692
		v0.915h5.078V223.644z"/>
	<path fill="#FFFFFF" d="M48.127,222.621c-0.305,0.108-0.574,0.054-0.682-0.287c-0.251-0.79-0.987-1.507-2.207-1.507
		c-1.417,0-2.53,0.879-2.53,2.889v2.387c0,1.974,1.005,2.907,2.512,2.907c1.238,0,1.92-0.592,2.225-1.346
		c0.125-0.323,0.377-0.395,0.682-0.269c0.287,0.107,0.448,0.305,0.323,0.646c-0.466,1.202-1.525,1.938-3.284,1.938
		c-2.028,0-3.553-1.238-3.553-3.732v-2.692c0-2.458,1.597-3.696,3.643-3.696c1.633,0,2.781,0.879,3.212,2.1
		C48.593,222.298,48.432,222.495,48.127,222.621z"/>
	<path fill="#FFFFFF" d="M56.754,229.422c0,0.376-0.197,0.52-0.556,0.52c-0.341,0-0.538-0.144-0.538-0.52v-0.718
		c-0.61,0.592-1.562,1.274-2.997,1.274c-1.561,0-2.871-1.059-2.871-2.835v-0.072c0-2.261,1.543-3.104,5.85-2.907v-0.7
		c0-1.848-0.736-2.638-2.189-2.638c-1.167,0-1.776,0.628-2.135,1.454c-0.144,0.323-0.377,0.377-0.646,0.251
		c-0.287-0.126-0.449-0.305-0.305-0.646c0.521-1.184,1.454-2.027,3.141-2.027c2.207,0,3.248,1.346,3.248,3.625V229.422z
		 M55.642,225.007c-3.463-0.125-4.737,0.395-4.737,1.992v0.126c0,1.076,0.843,1.884,2.01,1.884s2.045-0.556,2.728-1.256V225.007z"/>
	<path fill="#FFFFFF" d="M65.005,228.291c-0.7,0.808-1.884,1.633-3.391,1.633c-1.597,0-2.602-1.022-2.602-2.871v-6.585
		c0-0.376,0.197-0.52,0.556-0.52c0.341,0,0.556,0.144,0.556,0.52v6.496c0,1.274,0.682,1.992,1.723,1.992
		c1.13,0,2.261-0.592,3.123-1.669v-6.819c0-0.376,0.197-0.52,0.556-0.52c0.341,0,0.556,0.144,0.556,0.52v8.918
		c0,0.359-0.215,0.502-0.538,0.502c-0.341,0-0.539-0.144-0.539-0.502V228.291z"/>
	<path fill="#FFFFFF" d="M71.228,229.027c1.256,0,2.082-0.7,2.082-1.687c0-2.673-5.078-1.543-5.078-4.917
		c0-1.507,1.238-2.566,3.051-2.566c1.579,0,2.548,0.771,2.96,1.938c0.125,0.341-0.054,0.52-0.341,0.61
		c-0.377,0.108-0.574,0-0.664-0.269c-0.287-0.843-0.861-1.31-2.01-1.31c-1.167,0-1.92,0.574-1.92,1.579
		c0,2.405,5.078,1.328,5.078,4.917c0,1.471-1.22,2.656-3.158,2.656c-1.525,0-2.709-0.718-3.176-2.028
		c-0.125-0.341,0.036-0.538,0.323-0.646c0.305-0.125,0.556-0.036,0.682,0.269C69.38,228.345,69.972,229.027,71.228,229.027z"/>
	<path fill="#FFFFFF" d="M79.551,229.978c-2.404,0-3.732-1.472-3.732-3.714v-2.782c0-2.225,1.562-3.625,3.643-3.625
		c2.225,0,3.678,1.31,3.678,3.84v0.915c0,0.503-0.287,0.736-0.808,0.736h-5.383v0.861c0,1.669,0.825,2.799,2.602,2.799
		c1.311,0,2.01-0.466,2.387-1.238c0.162-0.323,0.377-0.395,0.682-0.269c0.287,0.108,0.467,0.323,0.323,0.664
		C82.44,229.314,81.31,229.978,79.551,229.978z M82.027,223.644c0-1.812-0.934-2.817-2.584-2.817c-1.399,0-2.494,0.915-2.494,2.692
		v0.915h5.078V223.644z"/>
</g>
<g>
	<path fill="#FFFFFF" d="M90.834,229.978c-2.404,0-3.732-1.472-3.732-3.714v-2.782c0-2.225,1.562-3.625,3.643-3.625
		c2.226,0,3.679,1.31,3.679,3.84v0.915c0,0.503-0.287,0.736-0.808,0.736h-5.383v0.861c0,1.669,0.825,2.799,2.602,2.799
		c1.311,0,2.01-0.466,2.387-1.238c0.162-0.323,0.377-0.395,0.682-0.269c0.287,0.108,0.467,0.323,0.323,0.664
		C93.724,229.314,92.593,229.978,90.834,229.978z M93.311,223.644c0-1.812-0.934-2.817-2.584-2.817
		c-1.399,0-2.494,0.915-2.494,2.692v0.915h5.078V223.644z"/>
	<path fill="#FFFFFF" d="M95.155,220.611c-0.126-0.395,0.036-0.664,0.484-0.664c0.359,0,0.538,0.144,0.646,0.466l1.507,4.737
		c0.377,1.167,0.754,2.387,1.059,3.553h0.019c0.287-1.131,0.682-2.423,1.04-3.571l1.436-4.629c0.126-0.413,0.342-0.556,0.683-0.556
		c0.431,0,0.592,0.251,0.466,0.646l-2.835,8.721c-0.144,0.449-0.431,0.592-0.843,0.592c-0.359,0-0.646-0.144-0.79-0.61
		L95.155,220.611z"/>
	<path fill="#FFFFFF" d="M107.103,229.978c-2.404,0-3.732-1.472-3.732-3.714v-2.782c0-2.225,1.562-3.625,3.643-3.625
		c2.226,0,3.679,1.31,3.679,3.84v0.915c0,0.503-0.287,0.736-0.808,0.736h-5.383v0.861c0,1.669,0.825,2.799,2.602,2.799
		c1.311,0,2.01-0.466,2.387-1.238c0.161-0.323,0.377-0.395,0.682-0.269c0.287,0.108,0.467,0.323,0.323,0.664
		C109.992,229.314,108.861,229.978,107.103,229.978z M109.579,223.644c0-1.812-0.933-2.817-2.584-2.817
		c-1.399,0-2.494,0.915-2.494,2.692v0.915h5.078V223.644z"/>
	<path fill="#FFFFFF" d="M113.828,223.285v6.083c0,0.377-0.197,0.521-0.557,0.521c-0.341,0-0.556-0.144-0.556-0.521v-8.9
		c0-0.359,0.215-0.502,0.538-0.502c0.341,0,0.538,0.144,0.538,0.502v1.651c0.539-1.166,1.849-2.243,2.979-2.243
		c0.322,0,0.395,0.233,0.395,0.413c0,0.628-0.251,0.753-0.521,0.753C115.228,221.042,114.079,222.315,113.828,223.285z"/>
	<path fill="#FFFFFF" d="M120.698,229.727l-3.194-9.116c-0.125-0.395,0.036-0.664,0.484-0.664c0.359,0,0.539,0.144,0.646,0.466
		l2.674,7.949l2.565-7.859c0.126-0.413,0.341-0.556,0.683-0.556c0.431,0,0.609,0.251,0.466,0.646l-3.409,9.726
		c-0.557,1.579-1.489,2.584-2.333,3.176c-0.305,0.215-0.521,0.179-0.753-0.108c-0.216-0.251-0.18-0.592,0.09-0.753
		C119.567,232.077,120.214,231.162,120.698,229.727z"/>
</g>
<g>
	<path fill="#FFFFFF" d="M29.616,241.203c-0.305,0.108-0.574,0.054-0.682-0.287c-0.251-0.79-0.987-1.507-2.207-1.507
		c-1.417,0-2.53,0.879-2.53,2.889v2.387c0,1.974,1.005,2.907,2.512,2.907c1.238,0,1.92-0.592,2.225-1.346
		c0.125-0.323,0.377-0.395,0.682-0.269c0.287,0.107,0.448,0.305,0.323,0.646c-0.466,1.202-1.525,1.938-3.284,1.938
		c-2.028,0-3.553-1.238-3.553-3.732v-2.692c0-2.458,1.597-3.696,3.643-3.696c1.633,0,2.781,0.879,3.212,2.099
		C30.083,240.88,29.921,241.078,29.616,241.203z"/>
	<path fill="#FFFFFF" d="M35.193,248.561c-2.405,0-3.732-1.472-3.732-3.715v-2.781c0-2.225,1.561-3.625,3.643-3.625
		c2.225,0,3.679,1.31,3.679,3.84v0.916c0,0.502-0.287,0.735-0.808,0.735h-5.383v0.861c0,1.669,0.825,2.799,2.602,2.799
		c1.31,0,2.01-0.466,2.386-1.238c0.162-0.323,0.377-0.395,0.682-0.27c0.287,0.108,0.466,0.323,0.323,0.664
		C38.082,247.896,36.952,248.561,35.193,248.561z M37.669,242.226c0-1.812-0.933-2.817-2.584-2.817c-1.4,0-2.494,0.916-2.494,2.692
		v0.915h5.078V242.226z"/>
	<path fill="#FFFFFF" d="M40.806,239.032c0-0.359,0.215-0.503,0.538-0.503c0.341,0,0.539,0.144,0.539,0.503v1.148
		c0.735-1.005,1.83-1.741,3.194-1.741c1.902,0,2.764,1.274,2.764,3.158v6.352c0,0.377-0.198,0.521-0.556,0.521
		c-0.341,0-0.557-0.144-0.557-0.521v-5.976c0-1.471-0.377-2.548-1.956-2.548c-1.184,0-2.314,0.915-2.853,1.992v6.532
		c0,0.377-0.197,0.521-0.556,0.521c-0.341,0-0.556-0.144-0.556-0.521V239.032z"/>
	<path fill="#FFFFFF" d="M53.83,247.43c0.305,0,0.431,0.18,0.431,0.485s-0.126,0.484-0.431,0.484h-0.485
		c-1.758,0-2.691-0.484-2.691-2.709v-6.065h-1.095c-0.305,0-0.431-0.179-0.431-0.484s0.125-0.484,0.431-0.484h1.095v-1.956
		c0-0.377,0.215-0.521,0.556-0.521c0.359,0,0.556,0.144,0.556,0.521v1.956h1.777c0.305,0,0.431,0.179,0.431,0.484
		s-0.126,0.484-0.431,0.484h-1.777v6.191c0,1.328,0.556,1.615,1.579,1.615H53.83z"/>
	<path fill="#FFFFFF" d="M65.812,241.203c-0.305,0.108-0.574,0.054-0.682-0.287c-0.251-0.79-0.987-1.507-2.207-1.507
		c-1.417,0-2.53,0.879-2.53,2.889v2.387c0,1.974,1.005,2.907,2.512,2.907c1.238,0,1.92-0.592,2.225-1.346
		c0.125-0.323,0.377-0.395,0.682-0.269c0.287,0.107,0.448,0.305,0.323,0.646c-0.466,1.202-1.525,1.938-3.284,1.938
		c-2.028,0-3.553-1.238-3.553-3.732v-2.692c0-2.458,1.597-3.696,3.643-3.696c1.633,0,2.781,0.879,3.212,2.099
		C66.279,240.88,66.117,241.078,65.812,241.203z"/>
	<path fill="#FFFFFF" d="M75.266,244.864c0,2.261-1.399,3.697-3.822,3.697c-2.404,0-3.804-1.364-3.804-3.625v-2.799
		c0-2.297,1.453-3.696,3.804-3.696c2.477,0,3.822,1.399,3.822,3.696V244.864z M74.153,242.28c0-1.956-0.987-2.871-2.71-2.871
		c-1.615,0-2.673,0.897-2.673,2.871v2.495c0,1.974,1.005,2.817,2.673,2.817c1.669,0,2.71-0.897,2.71-2.889V242.28z"/>
	<path fill="#FFFFFF" d="M83.301,246.874c-0.699,0.808-1.884,1.633-3.392,1.633c-1.597,0-2.602-1.023-2.602-2.871v-6.586
		c0-0.377,0.197-0.521,0.556-0.521c0.341,0,0.556,0.144,0.556,0.521v6.496c0,1.274,0.682,1.992,1.723,1.992
		c1.131,0,2.261-0.592,3.122-1.669v-6.819c0-0.377,0.198-0.521,0.557-0.521c0.341,0,0.557,0.144,0.557,0.521v8.918
		c0,0.359-0.216,0.502-0.539,0.502c-0.341,0-0.538-0.144-0.538-0.502V246.874z"/>
	<path fill="#FFFFFF" d="M86.958,239.032c0-0.359,0.215-0.503,0.538-0.503c0.341,0,0.538,0.144,0.538,0.503v1.148
		c0.736-1.005,1.831-1.741,3.194-1.741c1.902,0,2.764,1.274,2.764,3.158v6.352c0,0.377-0.197,0.521-0.557,0.521
		c-0.341,0-0.556-0.144-0.556-0.521v-5.976c0-1.471-0.377-2.548-1.956-2.548c-1.185,0-2.315,0.915-2.854,1.992v6.532
		c0,0.377-0.197,0.521-0.557,0.521c-0.341,0-0.556-0.144-0.556-0.521V239.032z"/>
	<path fill="#FFFFFF" d="M99.964,247.43c0.305,0,0.431,0.18,0.431,0.485s-0.126,0.484-0.431,0.484h-0.484
		c-1.759,0-2.692-0.484-2.692-2.709v-6.065h-1.094c-0.306,0-0.432-0.179-0.432-0.484s0.126-0.484,0.432-0.484h1.094v-1.956
		c0-0.377,0.216-0.521,0.557-0.521c0.359,0,0.557,0.144,0.557,0.521v1.956h1.776c0.305,0,0.431,0.179,0.431,0.484
		s-0.126,0.484-0.431,0.484H97.9v6.191c0,1.328,0.556,1.615,1.579,1.615H99.964z"/>
	<path fill="#FFFFFF" d="M104.823,247.609c1.256,0,2.082-0.7,2.082-1.687c0-2.674-5.079-1.543-5.079-4.917
		c0-1.507,1.238-2.566,3.051-2.566c1.579,0,2.549,0.771,2.961,1.938c0.126,0.341-0.054,0.521-0.341,0.61
		c-0.377,0.108-0.574,0-0.664-0.269c-0.287-0.843-0.861-1.31-2.01-1.31c-1.166,0-1.92,0.574-1.92,1.579
		c0,2.405,5.078,1.328,5.078,4.917c0,1.471-1.22,2.656-3.158,2.656c-1.525,0-2.71-0.718-3.176-2.028
		c-0.126-0.341,0.036-0.539,0.323-0.646c0.305-0.125,0.556-0.036,0.682,0.269C102.975,246.928,103.567,247.609,104.823,247.609z"/>
</g>
</svg>
