<?xml version="1.0" encoding="utf-8"?>
<!-- Generator: Adobe Illustrator 16.0.0, SVG Export Plug-In . SVG Version: 6.00 Build 0)  -->
<!DOCTYPE svg PUBLIC "-//W3C//DTD SVG 1.0//EN" "http://www.w3.org/TR/2001/REC-SVG-20010904/DTD/svg10.dtd">
<svg version="1.0" id="Layer_1" xmlns="http://www.w3.org/2000/svg" xmlns:xlink="http://www.w3.org/1999/xlink" x="0px" y="0px"
	 width="160px" height="600px" viewBox="0 0 160 600" enable-background="new 0 0 160 600" xml:space="preserve">
<rect x="-9.448" y="297.316" fill="#F69B1C" width="129.696" height="22.472"/>
<path fill="#FFFFFF" d="M116.04,297.315v22.473h12.123c0,0,6.013,0,6.013-6.013v-16.46H116.04z"/>
<rect x="108.648" y="297.315" fill="#005959" width="7.294" height="22.473"/>
<path fill="#009898" d="M128.064,308.354c-0.099-0.197-0.296-0.493-0.492-0.689l-3.549-3.549c-0.591-0.592-1.28-0.887-1.872-0.296
	c-0.592,0.592-0.297,1.281,0.296,1.873l3.153,3.154l-3.153,3.154c-0.593,0.591-0.888,1.28-0.296,1.873
	c0.592,0.591,1.281,0.295,1.872-0.296l3.549-3.549c0.196-0.197,0.394-0.492,0.492-0.689c0-0.1,0.1-0.197,0.1-0.197
	C128.262,308.848,128.164,308.552,128.064,308.354"/>
<g>
	<path fill="#FFFFFF" d="M11.254,304.038c0-0.579,0.356-0.771,1.054-0.771h2.42c2.004,0,3.088,1.039,3.088,2.643v0.326
		c0,1.113-0.653,2.02-1.604,2.271c1.054,0.179,1.915,1.113,1.915,2.465v0.326c0,1.619-1.128,2.821-3.251,2.821h-2.568
		c-0.698,0-1.054-0.193-1.054-0.772V304.038z M16.42,306.117c0-1.04-0.594-1.678-2.093-1.678h-1.692v3.548h1.871
		c1.143,0,1.915-0.549,1.915-1.663V306.117z M14.535,312.917c1.41,0,2.197-0.416,2.197-1.96c-0.015-1.203-0.757-1.856-2.063-1.856
		h-2.034v3.816H14.535z"/>
	<path fill="#FFFFFF" d="M20.117,308.195c-0.356-0.163-0.505-0.371-0.342-0.713c0.49-0.994,1.322-1.618,2.732-1.618
		c1.796,0,2.836,1.099,2.836,3.014v4.781c0,0.415-0.223,0.549-0.639,0.549c-0.43,0-0.638-0.134-0.638-0.549v-0.49
		c-0.505,0.55-1.247,1.099-2.42,1.099c-1.366,0-2.391-0.95-2.391-2.346v-0.074c0-1.767,1.218-2.643,4.781-2.435v-0.505
		c0-1.352-0.52-1.931-1.633-1.931c-0.802,0-1.277,0.416-1.544,0.995C20.696,308.329,20.473,308.358,20.117,308.195z M24.036,310.304
		c-2.628-0.089-3.459,0.326-3.459,1.455v0.074c0,0.757,0.564,1.321,1.411,1.321c0.861,0,1.544-0.386,2.049-0.965V310.304z"/>
	<path fill="#FFFFFF" d="M32.127,308.818c0-0.994-0.237-1.841-1.44-1.841c-0.965,0-1.737,0.728-2.123,1.515v5.137
		c0,0.431-0.238,0.579-0.668,0.579c-0.446,0-0.668-0.148-0.668-0.579v-7.111c0-0.416,0.208-0.564,0.639-0.564
		s0.668,0.148,0.668,0.564v0.742c0.564-0.742,1.44-1.396,2.613-1.396c1.588,0,2.316,1.084,2.316,2.554v5.211
		c0,0.431-0.238,0.579-0.668,0.579c-0.446,0-0.668-0.148-0.668-0.579V308.818z"/>
	<path fill="#FFFFFF" d="M41.228,313.406c0.237,0.387,0.044,0.802-0.594,0.802c-0.4,0-0.608-0.118-0.772-0.386l-2.256-3.712
		l-0.906,0.95v2.568c0,0.431-0.238,0.579-0.668,0.579c-0.446,0-0.668-0.148-0.668-0.579v-10.14c0-0.431,0.223-0.579,0.668-0.579
		c0.43,0,0.668,0.148,0.668,0.579v6.057l3.029-3.325c0.178-0.208,0.371-0.297,0.683-0.297c0.624,0,0.802,0.445,0.446,0.816
		l-2.287,2.435L41.228,313.406z"/>
	<path fill="#FFFFFF" d="M50.922,309.992c0.208,0.979,0.431,1.93,0.564,2.909h0.03c0.133-0.965,0.356-1.944,0.594-2.939l0.861-3.548
		c0.074-0.297,0.297-0.461,0.683-0.461c0.431,0,0.609,0.238,0.505,0.639l-1.9,7.053c-0.119,0.43-0.386,0.52-0.816,0.52
		c-0.431,0-0.728-0.104-0.832-0.49l-0.772-3.133c-0.223-0.95-0.446-1.945-0.535-2.791h-0.03c-0.119,0.861-0.327,1.826-0.564,2.791
		l-0.802,3.088c-0.119,0.445-0.401,0.535-0.832,0.535c-0.445,0-0.757-0.104-0.861-0.505l-1.886-6.979
		c-0.119-0.46,0.06-0.728,0.579-0.728c0.445,0,0.683,0.193,0.757,0.52l0.876,3.504c0.223,0.995,0.416,1.96,0.55,2.94h0.029
		c0.134-0.95,0.356-1.916,0.609-2.94l0.891-3.593c0.089-0.341,0.356-0.431,0.728-0.431c0.356,0,0.609,0.074,0.698,0.445
		L50.922,309.992z"/>
	<path fill="#FFFFFF" d="M56.726,303.489v0.802c0,0.43-0.237,0.578-0.668,0.578c-0.445,0-0.668-0.148-0.668-0.578v-0.802
		c0-0.431,0.223-0.579,0.668-0.579C56.489,302.91,56.726,303.059,56.726,303.489z M56.726,306.532v7.097
		c0,0.431-0.237,0.579-0.668,0.579c-0.445,0-0.668-0.148-0.668-0.579v-7.097c0-0.431,0.223-0.579,0.668-0.579
		C56.489,305.953,56.726,306.102,56.726,306.532z"/>
	<path fill="#FFFFFF" d="M60.363,306.013h1.307c0.356,0,0.475,0.179,0.475,0.55c0,0.341-0.119,0.534-0.475,0.534h-1.292v4.647
		c0,1.009,0.371,1.262,1.247,1.262h0.252c0.371,0,0.49,0.178,0.49,0.563c0,0.356-0.119,0.55-0.49,0.55h-0.416
		c-1.455,0-2.405-0.46-2.405-2.301v-4.722h-0.772c-0.356,0-0.475-0.193-0.475-0.534c0-0.371,0.119-0.55,0.475-0.55h0.772v-1.559
		c0-0.416,0.223-0.564,0.653-0.564c0.416,0,0.653,0.148,0.653,0.564V306.013z"/>
	<path fill="#FFFFFF" d="M68.796,308.818c0-1.247-0.445-1.841-1.47-1.841c-0.936,0-1.737,0.713-2.123,1.515v5.137
		c0,0.431-0.238,0.579-0.668,0.579c-0.446,0-0.668-0.148-0.668-0.579v-10.14c0-0.431,0.223-0.579,0.668-0.579
		c0.43,0,0.668,0.148,0.668,0.579v3.756c0.564-0.757,1.366-1.381,2.554-1.381c1.544,0,2.36,1.024,2.36,2.613v5.151
		c0,0.431-0.237,0.579-0.668,0.579c-0.445,0-0.653-0.148-0.653-0.579V308.818z"/>
	<path fill="#FFFFFF" d="M74.704,304.038c0-0.579,0.327-0.771,1.024-0.771h4.083c0.386,0,0.52,0.192,0.52,0.594
		c0,0.4-0.134,0.608-0.52,0.608h-3.727v3.771h3.385c0.371,0,0.504,0.207,0.504,0.594c0,0.386-0.133,0.594-0.504,0.594h-3.385v4.187
		c0,0.445-0.252,0.594-0.698,0.594c-0.46,0-0.683-0.148-0.683-0.594V304.038z"/>
	<path fill="#FFFFFF" d="M88.14,303.756c0-0.431,0.253-0.579,0.668-0.579c0.431,0,0.653,0.148,0.653,0.579v9.681
		c0,0.52-0.326,0.728-1.01,0.728c-0.46,0-0.801-0.104-0.994-0.461l-3.044-5.879c-0.549-1.069-0.979-2.049-1.455-3.118h-0.029
		c0.06,0.936,0.089,1.856,0.089,2.836v6.043c0,0.431-0.252,0.579-0.668,0.579c-0.431,0-0.653-0.148-0.653-0.579v-9.666
		c0-0.534,0.342-0.742,1.039-0.742c0.476,0,0.832,0.104,1.024,0.476l2.865,5.567c0.446,0.847,1.174,2.42,1.574,3.459h0.029
		c-0.059-0.965-0.089-2.152-0.089-3.103V303.756z"/>
	<path fill="#FFFFFF" d="M91.657,304.038c0-0.579,0.356-0.771,1.054-0.771h2.421c2.004,0,3.088,1.039,3.088,2.643v0.326
		c0,1.113-0.653,2.02-1.604,2.271c1.054,0.179,1.915,1.113,1.915,2.465v0.326c0,1.619-1.128,2.821-3.251,2.821h-2.569
		c-0.697,0-1.054-0.193-1.054-0.772V304.038z M96.824,306.117c0-1.04-0.594-1.678-2.094-1.678h-1.692v3.548h1.871
		c1.143,0,1.915-0.549,1.915-1.663V306.117z M94.938,312.917c1.41,0,2.197-0.416,2.197-1.96c-0.015-1.203-0.757-1.856-2.063-1.856
		h-2.034v3.816H94.938z"/>
</g>
</svg>
